<svg xmlns="http://www.w3.org/2000/svg" viewBox="0 0 48 48"><path d="M42 23.5a8.51 8.51 0 0 1-8.5 8.5h-.86l-.72-.89c.43-3.16-1-1 1.74-4.38l-2-3.46c-4.28.67-1.68.55-4.66-.68L26 20h-4c-1.28 3.33-.68 2.31-2 3.07s-.09.76-3.66.2l-2 3.46 1.74 2.16c-.39 2.87.62 1.46-.72 3.11H13.5a7.49 7.49 0 0 1-.5-15 11 11 0 0 1 21.83-1.92A8.5 8.5 0 0 1 42 23.5z" style="fill:#48bdff"/><path d="M31.92 31.11c.43-3.16-1-1 1.74-4.38l-2-3.46-2.74.43c-2.5-1.95-1.36.3-2.92-3.7h-4l-1 2.59c-2.9 1.2-.44 1.34-4.66.68l-2 3.46c2.72 3.38 1.31 1.18 1.74 4.38l-1.74 2.16 2 3.46 2.74-.43c2.5 2 1.36-.33 2.92 3.7h4l1-2.59c2.9-1.2.44-1.34 4.66-.68l2-3.46zM24 33a3 3 0 1 1 3-3 3 3 0 0 1-3 3z" style="fill:#b9d5ea"/></svg>