<svg xmlns="http://www.w3.org/2000/svg" viewBox="0 0 256 256" xml:space="preserve"><path fill="#EFEFEF" d="M23.333 136.451V239.5c0 5.523 4.477 10 10 10h189.333c5.523 0 10-4.477 10-10V136.451H23.333z"/><path fill="#FC5D3D" d="M232.67 112.12v24.335H23.33V112.12c0-5.52 4.48-10 10-10h24.8v4.71c0 3.51 2.85 6.35 6.35 6.35h14.04c3.5 0 6.35-2.84 6.35-6.35v-4.71h16.82c5.86 8.19 15.46 13.54 26.31 13.54s20.45-5.35 26.31-13.54h16.82v4.71c0 3.51 2.85 6.35 6.35 6.35h14.04c3.5 0 6.35-2.84 6.35-6.35v-4.71h24.8c5.52 0 10 4.48 10 10z"/><path fill="#FFB69F" d="M197.87 97.41v9.42c0 3.51-2.85 6.35-6.35 6.35h-14.04c-3.5 0-6.35-2.84-6.35-6.35v-9.42c0-3.51 2.85-6.35 6.35-6.35h14.04c3.5 0 6.35 2.84 6.35 6.35zM84.87 97.41v9.42c0 3.51-2.85 6.35-6.35 6.35H64.48c-3.5 0-6.35-2.84-6.35-6.35v-9.42c0-3.51 2.85-6.35 6.35-6.35h14.04c3.5 0 6.35 2.84 6.35 6.35zM160.31 59.21v24.14c0 7-2.22 13.47-6 18.77-5.86 8.19-15.46 13.54-26.31 13.54s-20.45-5.35-26.31-13.54c-3.78-5.3-6-11.77-6-18.77V59.21h64.62z"/><path fill="#72C2E9" d="M168.21 51.63c0 4.18-3.391 7.58-7.57 7.58H95.36c-4.18 0-7.57-3.39-7.57-7.58 0-12.33 9.993-22.33 22.33-22.33h35.76c12.33 0 22.33 10 22.33 22.33zM139.67 7l-2.75 13.5h-17.84L116.33 7z"/><path fill="#7D7B79" d="M143.6 24.9a4.4 4.4 0 0 1-4.4 4.4h-22.4a4.4 4.4 0 0 1 0-8.8h22.4a4.4 4.4 0 0 1 4.4 4.4z"/><path fill="#FC5D3D" d="M164.5 178.283h-21.807v-21.807h-29.386v21.807H91.5v29.386h21.807v21.807h29.386v-21.807H164.5z"/><path fill="#FFF" d="M222.666 242H47.833a2.5 2.5 0 1 1 0-5h172.333v-92.667a2.5 2.5 0 1 1 5 0V239.5a2.5 2.5 0 0 1-2.5 2.5zm-184.833 0h-4.499a2.5 2.5 0 1 1 0-5h4.499a2.5 2.5 0 1 1 0 5z"/><path fill="#FFCBC3" d="M222.666 130.703H51.751a2.5 2.5 0 1 1 0-5h168.415v-13.585a2.5 2.5 0 1 1 5 0v16.085a2.5 2.5 0 0 1-2.5 2.5zm-180.915 0h-8.417a2.5 2.5 0 1 1 0-5h8.417a2.5 2.5 0 1 1 0 5z"/><circle cx="174.569" cy="249.5" r="2.5"/><path d="M222.67 247h-38.101a2.5 2.5 0 0 0 0 5H222.67c6.89 0 12.49-5.61 12.5-12.5V112.12c0-6.893-5.607-12.5-12.5-12.5h-8.846v-9.336a2.5 2.5 0 1 0-5 0v9.336h-8.457v-2.214c0-4.88-3.97-8.851-8.85-8.851h-14.035c-4.88 0-8.85 3.971-8.85 8.851v2.214h-9.848a34.552 34.552 0 0 0 2.735-6.841 2.508 2.508 0 0 0-1.729-3.09c-1.311-.359-2.721.44-3.08 1.74-3.654 13.011-15.585 21.73-28.71 21.73-16.363 0-29.811-13.217-29.811-29.811V61.71h59.62v10.5a2.5 2.5 0 0 0 5 0V61.464c4.51-1.003 7.9-5.03 7.9-9.834 0-13.454-10.817-24.83-24.883-24.83 1.199-4.176-1.697-8.289-5.857-8.754l2.148-10.547a2.5 2.5 0 0 0-2.449-2.999h-23.34a2.5 2.5 0 0 0-2.449 2.999l2.148 10.547c-4.159.465-7.055 4.578-5.857 8.754-4.325 0-8.411 1.088-11.972 3.04a2.495 2.495 0 0 0-.99 3.39c.64 1.17 2.22 1.641 3.399 1a19.547 19.547 0 0 1 9.511-2.43h4.926c-2.037 3.583-3.286 8.82-3.286 14.867a2.5 2.5 0 1 0 5 0c0-9.619 3.39-14.867 5.131-14.867h12.219c1.741 0 5.131 5.248 5.131 14.867a2.5 2.5 0 1 0 5 0c0-6.047-1.25-11.284-3.286-14.867h4.926c10.91.02 19.81 8.92 19.83 19.83-.009 2.565-1.954 5.08-5.4 5.08h-64.62c-3.454 0-5.399-2.528-5.399-5.08 0-1.16.1-2.33.3-3.46.24-1.36-.67-2.66-2.03-2.9-1.35-.229-2.66.69-2.89 2.03-.25 1.42-.38 2.88-.38 4.33 0 4.813 3.389 8.841 7.899 9.838V83.35a34.623 34.623 0 0 0 4.044 16.271h-9.866v-2.214c0-4.88-3.97-8.851-8.85-8.851H64.482c-4.88 0-8.85 3.971-8.85 8.851v2.214h-8.466v-9.336a2.5 2.5 0 1 0-5 0v9.336H33.33c-6.893 0-12.5 5.607-12.5 12.5v127.38c.01 6.89 5.609 12.5 12.5 12.5h131.239a2.5 2.5 0 0 0 0-5H33.33c-4.13-.01-7.49-3.37-7.5-7.5V138.955h204.34V239.5c-.01 4.13-3.37 7.49-7.5 7.5zM136.609 9.5l-1.731 8.5h-13.756l-1.731-8.5h17.218zM116.8 26.8a1.902 1.902 0 0 1-1.899-1.9c0-1.047.853-1.899 1.899-1.899h22.4c1.047 0 1.899.853 1.899 1.899a1.902 1.902 0 0 1-1.899 1.899l-22.4.001zm56.833 70.606a3.855 3.855 0 0 1 3.85-3.851h14.035a3.855 3.855 0 0 1 3.85 3.851v9.424a3.855 3.855 0 0 1-3.85 3.851h-14.035a3.855 3.855 0 0 1-3.85-3.851v-9.424zm-113 0a3.855 3.855 0 0 1 3.85-3.851h14.035a3.855 3.855 0 0 1 3.85 3.851v9.424a3.855 3.855 0 0 1-3.85 3.851H64.482a3.855 3.855 0 0 1-3.85-3.851v-9.424zM33.33 104.62h8.837v9.33a2.5 2.5 0 1 0 5 0v-9.33h8.466v2.21c0 4.88 3.97 8.851 8.85 8.851h14.035c4.88 0 8.85-3.971 8.85-8.851v-2.21h13.083c6.67 8.598 16.785 13.54 27.55 13.54 10.471 0 20.72-4.724 27.557-13.54h13.076v2.21c0 4.88 3.97 8.851 8.85 8.851h14.035c4.88 0 8.85-3.971 8.85-8.851v-2.21h8.457v9.33a2.5 2.5 0 1 0 5 0v-9.33h8.846c4.136 0 7.5 3.364 7.5 7.5v21.83H25.83v-21.83c0-4.136 3.364-7.5 7.5-7.5z"/><path d="M117.239 100.588a2.5 2.5 0 0 0 2.5-2.5c0-4.555 3.706-8.261 8.261-8.261s8.261 3.706 8.261 8.261a2.5 2.5 0 1 0 5 0c0-7.312-5.949-13.261-13.261-13.261s-13.261 5.949-13.261 13.261a2.5 2.5 0 0 0 2.5 2.5zM109.214 69.488a2.5 2.5 0 0 0-2.5 2.5v4.094c0 3.636 2.958 6.594 6.594 6.594s6.594-2.958 6.594-6.594v-4.094a2.5 2.5 0 1 0-5 0v4.094c0 .879-.715 1.594-1.594 1.594s-1.594-.715-1.594-1.594v-4.094a2.5 2.5 0 0 0-2.5-2.5zM149.286 76.082v-4.094a2.5 2.5 0 1 0-5 0v4.094c0 .879-.715 1.594-1.594 1.594s-1.594-.715-1.594-1.594v-4.094a2.5 2.5 0 1 0-5 0v4.094c0 3.636 2.958 6.594 6.594 6.594s6.594-2.958 6.594-6.594zM93.439 36.569c-1.08-.77-2.71-.51-3.489.57 0 .01 0 .01-.011.01a2.506 2.506 0 0 0 .58 3.48 2.505 2.505 0 0 0 3.49-.57 2.494 2.494 0 0 0-.57-3.49z"/><circle cx="160.31" cy="82.21" r="2.5"/><path d="M113.307 231.976h29.387a2.5 2.5 0 0 0 2.5-2.5v-19.307H164.5a2.5 2.5 0 0 0 2.5-2.5v-29.386a2.5 2.5 0 0 0-2.5-2.5h-19.307v-19.308a2.5 2.5 0 0 0-2.5-2.5h-29.387a2.5 2.5 0 0 0-2.5 2.5v19.308H91.5a2.5 2.5 0 0 0-2.5 2.5v29.386a2.5 2.5 0 0 0 2.5 2.5h19.307v19.307a2.5 2.5 0 0 0 2.5 2.5zM94 205.169v-24.386h19.307a2.5 2.5 0 0 0 2.5-2.5v-19.308h24.387v19.308a2.5 2.5 0 0 0 2.5 2.5H162v24.386h-19.307a2.5 2.5 0 0 0-2.5 2.5v19.307h-24.387v-19.307a2.5 2.5 0 0 0-2.5-2.5H94z"/></svg>