<svg xmlns="http://www.w3.org/2000/svg" viewBox="0 0 2048 2048" style="enable-background:new 0 0 2048 2048" xml:space="preserve"><path style="fill:#e1efff" d="M1412.889 506.36V1588c0 22.091-17.909 40-40 40H327.559c-22.091 0-40-17.909-40-40V320c0-22.091 17.909-40 40-40h858.95l226.37 226.36h.01z"/><path style="fill:#b0ccdd" d="M1186.509 280v226.364h226.374zM1043.249 810.626H437.527c-13.255 0-24-10.745-24-24s10.745-24 24-24h605.722c13.255 0 24 10.745 24 24s-10.746 24-24 24zM730.173 978.002H437.53c-13.255 0-24-10.745-24-24s10.745-24 24-24h292.643c13.255 0 24 10.745 24 24s-10.745 24-24 24zM1262.915 643.251H437.527c-13.255 0-24-10.745-24-24s10.745-24 24-24h825.387c13.255 0 24 10.745 24 24s-10.745 24-23.999 24zM1022.82 475.875H437.527c-13.255 0-24-10.745-24-24s10.745-24 24-24h585.292c13.255 0 24 10.745 24 24s-10.744 24-23.999 24zM794.749 1145.38H437.53c-13.255 0-24-10.745-24-24s10.745-24 24-24h357.218c13.255 0 24 10.745 24 24s-10.745 24-23.999 24zM763.249 1312.757H437.53c-13.255 0-24-10.745-24-24s10.745-24 24-24h325.718c13.255 0 24 10.745 24 24s-10.745 24-23.999 24zM814.749 1480.126H437.527c-13.255 0-24-10.745-24-24s10.745-24 24-24h377.222c13.255 0 24 10.745 24 24s-10.746 24-24 24z"/><g><path style="fill:#badb47" d="m1337.564 1768-27.141-28.216c-6.098-6.34-12.005-12.794-17.716-19.035-9.649-10.543-18.762-20.502-28.288-29.445-15.023-14.103-33.985-26.559-57.969-38.079-11.618-5.586-23.417-10.872-35.91-16.468l-.201-.09c-18.055-8.093-36.725-16.462-55.686-26.106-47.245-24.044-84.905-52.098-115.138-85.771a333.06 333.06 0 0 1-54.006-81.651c-14.029-30.046-23.361-61.729-27.737-94.169-1.618-12.031-2.621-24.882-3.069-39.302l-.018-.599v-.601l.337-400.429 33.973-3.315c138.664-13.53 267.662-68.994 363.231-156.178l25.383-23.155 25.38 23.158c95.54 87.172 224.506 142.634 363.143 156.169l33.971 3.317.337 401.034-.019.599c-.447 14.42-1.451 27.271-3.067 39.288-4.376 32.454-13.709 64.137-27.738 94.184a333.046 333.046 0 0 1-54.006 81.65c-30.234 33.673-67.893 61.728-115.131 85.767-18.972 9.65-37.647 18.021-55.707 26.116l-.18.08c-12.5 5.6-24.299 10.886-35.904 16.465-23.996 11.526-42.959 23.982-57.984 38.086-9.523 8.941-18.636 18.899-28.285 29.443-5.712 6.241-11.619 12.696-17.718 19.036L1337.564 1768z"/><path style="fill:#92ca32" d="M1337.563 1597.973c-22.336-19.476-48.578-36.345-79.892-51.386-13.01-6.254-25.506-11.852-38.736-17.78l-.154-.069c-17.616-7.896-34.145-15.305-50.49-23.619-34.004-17.306-60.424-36.728-80.75-59.364a214.941 214.941 0 0 1-34.841-52.67c-8.961-19.192-14.912-39.354-17.686-59.924-1.024-7.617-1.689-16.129-2.024-25.94l.248-295.263c111.968-21.509 216.642-66.704 304.366-131.411 87.698 64.694 192.347 109.889 304.286 131.4l.249 295.259c-.335 9.815-.999 18.325-2.029 25.984-2.769 20.537-8.72 40.703-17.684 59.898a214.825 214.825 0 0 1-34.84 52.667c-20.324 22.636-46.742 42.057-80.763 59.37-16.364 8.323-32.914 15.742-50.436 23.595l-.329.148c-13.184 5.907-25.64 11.489-38.621 17.729-31.294 15.029-57.537 31.9-79.874 51.376z"/><circle style="fill:#f3f6ff" cx="1337.564" cy="1232.682" r="160.806"/><path style="fill:#92ca32" d="M1315.37 1304.2c-8.291 0-16.581-3.162-22.907-9.488l-33.856-33.856c-12.651-12.652-12.651-33.162 0-45.814 12.652-12.652 33.162-12.652 45.814 0l10.949 10.949 55.338-55.338c12.652-12.652 33.162-12.652 45.814 0 12.65 12.652 12.65 33.162 0 45.814l-78.245 78.245c-6.326 6.326-14.616 9.488-22.907 9.488z"/></g></svg>