<svg version="1.1" id="Layer_1" xmlns="http://www.w3.org/2000/svg" x="0" y="0" viewBox="0 0 512 512" style="enable-background:new 0 0 512 512" xml:space="preserve"><style>.st0{fill:#6770e6}.st3{fill:#d476e2}.st6{fill:#69ebfc}.st19{fill:#5fd4e3}</style><path class="st19" d="M200.423 28.365C200.423 12.7 187.724 0 172.058 0H28.365C12.7 0 0 12.7 0 28.365v455.27C0 499.3 12.7 512 28.365 512h455.27C499.3 512 512 499.3 512 483.635V85.096c0-15.666-12.7-28.365-28.365-28.365H228.788c-15.665-.001-28.365-12.7-28.365-28.366z"/><path class="st0" d="M406.442 244.571h-26.695a127.495 127.495 0 0 0-13.38-31.451l18.505-18.504c3.928-3.928 3.928-10.297 0-14.225l-32.26-32.261c-3.928-3.928-10.297-3.928-14.224 0l-18.96 18.96c-9.809-5.584-20.409-9.935-31.616-12.788v-26.244c0-5.555-4.503-10.058-10.058-10.058H232.13c-5.555 0-10.058 4.503-10.058 10.058v26.874a127.516 127.516 0 0 0-31.341 13.31l-18.614-18.613c-3.928-3.929-10.296-3.929-14.224 0l-32.261 32.26c-3.928 3.928-3.928 10.297 0 14.225l19.012 19.012c-5.591 9.792-9.956 20.374-12.821 31.564h-26.262c-5.555 0-10.058 4.503-10.058 10.058v45.624c0 5.555 4.503 10.058 10.058 10.058h26.796a127.488 127.488 0 0 0 13.304 31.425l-18.53 18.53c-3.928 3.928-3.928 10.297 0 14.225l32.261 32.26c3.928 3.928 10.296 3.928 14.224 0l18.884-18.883c9.829 5.624 20.454 10.011 31.692 12.887v26.069c0 5.555 4.503 10.058 10.058 10.058h45.624c5.555 0 10.058-4.503 10.058-10.058v-26.617a127.448 127.448 0 0 0 31.535-13.374l18.42 18.42c3.928 3.928 10.297 3.928 14.225 0l32.261-32.261c3.928-3.928 3.928-10.296 0-14.224l-18.832-18.831c5.617-9.845 9.99-20.49 12.852-31.745h26.051c5.555 0 10.058-4.503 10.058-10.058V254.63c-.002-5.556-4.505-10.059-10.06-10.059zM256.081 348.34c-38.512 0-69.733-31.221-69.733-69.733 0-38.513 31.221-69.733 69.733-69.733 38.513 0 69.733 31.22 69.733 69.733 0 38.511-31.221 69.733-69.733 69.733z"/><path class="st6" d="M200.423 298.365c0-15.666-12.7-28.365-28.365-28.365H28.365C12.7 270 0 282.7 0 298.365v185.27C0 499.3 12.7 512 28.365 512h455.27C499.3 512 512 499.3 512 483.635V355.096c0-15.666-12.7-28.365-28.365-28.365H228.788c-15.665-.001-28.365-12.7-28.365-28.366zM483.635 56.73H228.788c-15.666 0-28.365-12.7-28.365-28.365S187.724 0 172.058 0H28.365C12.699 0 0 12.7 0 28.365v20C0 32.7 12.699 20 28.365 20h143.693c15.666 0 28.365 12.7 28.365 28.365 0 15.666 12.699 28.365 28.365 28.365h254.846c15.666 0 28.365 12.7 28.365 28.365v-20C512 69.43 499.301 56.73 483.635 56.73z"/><path class="st19" d="M483.635 492H28.365C12.699 492 0 479.3 0 463.635v20C0 499.3 12.699 512 28.365 512h455.27C499.301 512 512 499.3 512 483.635v-20C512 479.3 499.301 492 483.635 492z"/><path class="st0" d="M109 412.5h302v59H109z"/><path d="M186 453h148c6.075 0 11-4.925 11-11s-4.925-11-11-11H186c-6.075 0-11 4.925-11 11s4.925 11 11 11z" style="fill:#5861c7"/><path class="st3" d="M0 412.174h67.162L84.382 442l-17.22 29.826H0C11.2 495.566 35.343 512 63.333 512c38.66 0 70-31.34 70-70s-31.34-70-70-70C35.343 372 11.2 388.434 0 412.174zM512 471.826h-67.162L427.618 442l17.22-29.826H512C500.8 388.434 476.657 372 448.667 372c-38.66 0-70 31.34-70 70s31.34 70 70 70c27.99 0 52.133-16.434 63.333-40.174z"/></svg>